<svg width="50" height="34" viewBox="0 0 50 34" fill="none" xmlns="http://www.w3.org/2000/svg">
<path d="M27.6408 15.1785V0.134651H31.4868C34.3978 0.134651 37.4788 0.559619 37.4788 4.2781C37.4788 6.46669 36.0552 7.89033 33.7178 8.25156L37.9888 15.1785H35.8002L31.7205 8.42154H29.4257V15.1785H27.6408ZM29.4257 1.79203V6.76416H31.0193C32.9954 6.76416 35.5665 6.76416 35.5665 4.2781C35.5665 2.11076 33.6753 1.79203 31.933 1.79203H29.4257Z" fill="#D8320F"/>
<path d="M0.0840929 15.1785V0.134651H4.54627C7.30856 0.134651 9.81588 1.11208 9.81588 4.25685C9.81588 7.55036 7.01109 8.42154 4.88624 8.42154H1.86896V15.1785H0.0840929ZM1.86896 1.79203V6.76416H4.88624C6.67111 6.76416 7.90352 5.95672 7.90352 4.2781C7.90352 2.59947 6.67111 1.79203 4.88624 1.79203H1.86896Z" fill="#D8320F"/>
<path d="M39.2857 33.0357V0H49.5835V3.63953H41.2296V13.9982H49.0281V17.6377H41.2296V29.3962H50V33.0357H39.2857Z" fill="#D8320F"/>
<path d="M24.1071 33.0357L29.5401 25.0391L24.5283 17.8571H26.8026L30.8246 23.7957L34.8046 17.8571H37.0157L32.0039 25.0391L37.5 33.0357H35.1626L30.7404 26.304L26.2972 33.0357H24.1071Z" fill="#D8320F"/>
<path d="M22.3214 0V19.9306C22.3214 26.9382 20.7564 33.0357 16.5179 33.0357C12.2793 33.0357 10.7143 26.9382 10.7143 19.9306V0H12.5401V19.3846C12.5401 24.572 13.453 29.4864 16.5179 29.4864C19.5827 29.4864 20.4956 24.572 20.4956 19.3846V0H22.3214Z" fill="#D8320F"/>
<path d="M0 33.0357V17.8571H1.83824V31.3635H8.92857V33.0357H0Z" fill="#D8320F"/>
</svg>
